<svg xmlns="http://www.w3.org/2000/svg" xmlns:xlink="http://www.w3.org/1999/xlink" viewBox="0 0 897 1160">
  <g id="Crown" style="isolation: isolate">
    <path d="M598,448c31.32-.74,59.11,12.42,82,21,79.8,29.89,124.75,63.19,159,139,9.38,20.77,11.09,48.91,
    17,72,2.4,9.4-.38,16.33,2,26,2.9,11.76,2,30.12,2,45v87a64,64,0,0,0-2,16c0,18.06-2,57.42-16,
    59-7.22,4.63-18.37.73-28,3-3.23.76-8.45,3.35-14,2-3.61-.88-9.92-3.42-16-2-10.06,2.35-30.71,3-42,
    0-7.59-2-26-10.78-38-8-41.28,9.56-86.79-8.4-122-18-42.61-11.62-83.11-20.57-126-32-21.39-5.7-45.38-6.9-66-12H380c-4.34-1.12-8.34-4.84-12-6-5.32-1.69-11,1.44-14,2-1.48.28-16.68-1.18-20-2-2.88-.71-10.11-.73-14-2-3.27-1.07-6.56-5-10-6H296c-6.8-1.67-21.19-2.35-28-4-12.54-3-29.73.49-40-2-6.17-1.5-15.42,1.9-20-1-4.51-1.44-5.13-4.16-8-7-.4-19,3.84-37.38,8-54V744c5.84-23.19,5.78-47.57,12-70,13.59-49,29.16-94.37,59-127,4.08-4.47,9.71-7.71,14-12,5.05-5,9.18-11.79,15-16,4.25-3.08,9-4.61,13-8,9.89-8.48,22.67-18.38,35-24,28.49-13,61.33-18.78,94-27h12l16-4h18c10.56-2.61,24.27-2.7,36-5a10.92,10.92,0,0,1,2-3c-3-10.55-9-27.45,8-29,7.09-4.68,12,3.6,16,5h11c11,.05,16.25,2.2,22,7,3.27,2.74,5.47,3.26,6,9C598.14,441.69,
    598.07,444.9,598,448Z" fill="none" fill-rule="evenodd"/>
  </g>
  <g id="shadow_Image" data-name="shadow Image">
    <image id="shadow_Image-2" data-name="shadow Image" width="842" height="666" transform="translate(24 416)" xlink:href="cap-exercise1.png"/>
  </g>
  <g id="Visor" style="isolation: isolate">
    <path d="M210,826c8.23-.13,16.45.62,22,2,12.51,3.1,29.74-.54,40,2,13.55,3.36,25.05-1.5,38,2,4,1.09,6.56,4.85,10,6,3.82,1.27,11.16,1.29,14,2,3.31.82,18.52,2.27,20,2,3-.55,8.71-3.72,14-2,3.67,1.19,7.65,4.87,12,6,18.79,4.89,37.48,3,56,8,13.32,3.59,28.81,6.46,42,10l20,3c9.29,4,21.86,6.91,32,10l12,2c23.39,10,54.58,16.16,80,23,12,3.24,30.11,6.36,40,4,8.27-2,12.7,3.66,20,2,5.43-1.23,11-6.42,18-5,10.65,2.16,16.62,5.73,28,8a21.58,21.58,0,0,1,1,7c-4.27,2.86-6.46,7.45-10,11-8.24,8.26-18.25,15.31-26,24-5.16,5.79-8.32,12.8-14,18-9.17,8.4-20.54,13.88-30,22-20.38,17.49-41.44,38.25-65,52-14.11,8.23-30.7,13.41-46,20-6.58,2.83-12.29,1.08-20,3-29.71,7.4-76,1-102-8-12.28-4.25-23.7-4.51-36-9-17-6.23-36.88-14.35-53-22-8.18-3.88-17.08-2.46-25-6a714.29,714.29,0,0,0-112-39H172c-13-3.18-39-5.86-52-2-2.37.71-5.35,3.28-8,4-11.93,3.25-25.53.93-36,5-3.79,1.47-18,7.35-21,10-7.66,6.84-3,8.94-19,9-1-.8-.27-.35-2-1-1.71-2.73-2.54-2.5-3-7-.83-1.66-.24-2.59,0-6,7.1-4.79,12-13,18-19s13.47-10.19,20-16c1-.86,1.06-3.07,2-4,4.36-4.32,9.66-7.66,14-12,2.29-2.29,3.62-5.82,6-8,2.88-2.63,7.06-3.39,10-6,2.39-2.13,3.72-5.72,6-8,9.67-9.67,20.33-18.33,30-28,4.95-5,8.84-11.28,14-16,2.88-2.63,7.06-3.39,10-6,3.09-2.76,5.06-7.06,8-10s7.24-4.91,10-8c7.63-8.57,13.28-18.61,21-27C204.17,828.07,207.69,827.75,210,826Z" fill="none" fill-rule="evenodd"/>
  </g>
</svg>
